M48
; DRILL file {KiCad 7.0.10} date Sun Mar 10 13:48:46 2024
; FORMAT={-:-/ absolute / metric / decimal}
; #@! TF.CreationDate,2024-03-10T13:48:46+03:00
; #@! TF.GenerationSoftware,Kicad,Pcbnew,7.0.10
; #@! TF.FileFunction,Plated,1,2,PTH
FMAT,2
METRIC
; #@! TA.AperFunction,Plated,PTH,ComponentDrill
T1C0.762
; #@! TA.AperFunction,Plated,PTH,ViaDrill
T2C0.800
; #@! TA.AperFunction,Plated,PTH,ComponentDrill
T3C0.950
; #@! TA.AperFunction,Plated,PTH,ComponentDrill
T4C1.000
; #@! TA.AperFunction,Plated,PTH,ComponentDrill
T5C1.016
%
G90
G05
T1
X50.724Y-7.315
X50.724Y-9.855
X50.724Y-12.395
X50.724Y-14.935
X50.724Y-17.475
X50.724Y-20.015
X50.724Y-22.555
X78.156Y-3.505
X79.172Y-13.665
X79.172Y-16.205
X80.696Y-3.505
T2
X3.734Y-3.734
X3.734Y-18.974
X6.274Y-3.734
X6.274Y-18.974
X6.477Y-23.774
X6.477Y-26.264
X6.477Y-28.778
X6.477Y-31.293
X8.814Y-3.734
X8.814Y-18.974
X11.354Y-3.734
X11.354Y-18.974
X13.894Y-3.734
X13.894Y-18.974
X16.434Y-3.734
X16.434Y-18.974
X18.974Y-3.734
X18.974Y-18.974
X19.456Y-22.835
X19.456Y-26.01
X21.514Y-3.734
X21.514Y-18.974
X24.054Y-3.734
X24.054Y-18.974
X26.594Y-3.734
X26.594Y-18.974
X29.134Y-3.734
X29.134Y-18.974
X29.667Y-22.809
X29.667Y-25.984
X31.674Y-3.734
X31.674Y-18.974
X34.214Y-3.734
X34.214Y-18.974
X35.992Y-33.249
X36.017Y-25.603
X36.754Y-3.734
X36.754Y-18.974
X39.294Y-3.734
X39.294Y-18.974
X44.602Y-7.366
X44.628Y-16.18
X47.422Y-7.264
X47.422Y-16.205
X50.698Y-7.29
X50.698Y-9.83
X50.698Y-12.37
X50.698Y-14.91
X50.698Y-17.45
X50.698Y-19.99
X50.698Y-22.53
X78.13Y-3.48
X79.146Y-13.64
X79.172Y-16.18
X80.696Y-3.48
X82.22Y-31.293
X82.22Y-33.793
T3
X6.477Y-23.778
X6.477Y-26.278
X6.477Y-28.778
X6.477Y-31.278
T4
X82.22Y-31.293
X82.22Y-33.793
T5
X3.736Y-3.734
X3.736Y-18.974
X6.276Y-3.734
X6.276Y-18.974
X8.816Y-3.734
X8.816Y-18.974
X11.356Y-3.734
X11.356Y-18.974
X13.896Y-3.734
X13.896Y-18.974
X16.436Y-3.734
X16.436Y-18.974
X18.976Y-3.734
X18.976Y-18.974
X21.516Y-3.734
X21.516Y-18.974
X24.056Y-3.734
X24.056Y-18.974
X26.596Y-3.734
X26.596Y-18.974
X29.136Y-3.734
X29.136Y-18.974
X31.676Y-3.734
X31.676Y-18.974
X34.216Y-3.734
X34.216Y-18.974
X36.756Y-3.734
X36.756Y-18.974
X39.296Y-3.734
X39.296Y-18.974
M30
